Coordinates
version=1
nRows=14
nColumns=24
inDegrees=yes

Units are S.I. units (second, meters, Newtons, ...)
Angles are in degrees.

endheader
time	pelvis_tilt	pelvis_list	pelvis_rotation	pelvis_tx	pelvis_ty	pelvis_tz	hip_flexion_r	hip_adduction_r	hip_rotation_r	knee_angle_r	ankle_angle_r	subtalar_angle_r	mtp_angle_r	hip_flexion_l	hip_adduction_l	hip_rotation_l	knee_angle_l	ankle_angle_l	subtalar_angle_l	mtp_angle_l	lumbar_extension	lumbar_bending	lumbar_rotation
      0.64800000	      1.19074171	      1.43992982	      5.63459139	     -0.72463083	      0.97851680	      0.27412134	     25.13204117	     -0.19060482	     -4.75807719	     -4.05841434	      7.38001430	    -13.29052715	     -0.81234991	    -20.98254195	      3.67608942	      2.34608727	     -6.98654464	      9.79737720	      3.60845792	      7.39221963	     -1.77594470	      0.37659092	     -5.17440188
      0.65216667	      1.11369929	      1.35554673	      5.75013214	     -0.71851052	      0.97775355	      0.27422920	     25.18516493	     -0.09274099	     -4.80026690	     -4.47626858	      7.28546982	    -13.50385416	     -0.81586808	    -21.05217315	      3.50220738	      2.34937333	     -7.35324582	      9.61568553	      3.71524381	      7.41193377	     -1.62561935	      0.48530890	     -5.22192896
      0.65633333	      1.06956594	      1.27021120	      5.83873913	     -0.71235110	      0.97704482	      0.27435876	     25.20775716	      0.01669153	     -4.83544367	     -4.92595952	      7.14204837	    -13.66835837	     -0.81741724	    -21.14786646	      3.33574503	      2.31494100	     -7.73692046	      9.39859226	      3.73428560	      7.42368927	     -1.52153611	      0.58972292	     -5.24229035
      0.66050000	      0.90899365	      1.17486963	      5.94184500	     -0.70617045	      0.97620412	      0.27452869	     25.31273886	      0.14172807	     -4.66607876	     -5.31452734	      6.88409158	    -14.29634795	     -0.79462286	    -21.04726360	      3.15143360	      2.17018653	     -8.26169235	      9.29118367	      4.05898999	      7.56774986	     -1.24908167	      0.70817351	     -5.36532259
      0.66466667	      0.81754316	      1.05097640	      6.03066524	     -0.69990375	      0.97548345	      0.27469360	     25.33923122	      0.30265664	     -4.55499252	     -5.70923528	      6.56203474	    -14.82933137	     -0.75909672	    -21.05406307	      2.94049280	      2.07971199	     -8.71283111	      9.06335523	      4.21513077	      7.76534074	     -1.06280448	      0.86276011	     -5.37160059
      0.66883333	      0.78532426	      0.93335259	      6.09863072	     -0.69358414	      0.97484743	      0.27483528	     25.35242446	      0.45135600	     -4.59788970	     -6.22740024	      6.33504745	    -15.00696389	     -0.75531140	    -21.15131676	      2.74581170	      2.04123382	     -9.10657208	      8.74123043	      4.21766782	      7.80287606	     -0.94898717	      1.01901958	     -5.37155098
      0.67300000	      0.62080706	      0.80028554	      6.17939974	     -0.68727140	      0.97407735	      0.27504167	     25.43635317	      0.62961630	     -4.36651202	     -6.59798807	      5.84333928	    -15.77723866	     -0.70168554	    -21.01876720	      2.53029508	      1.90654146	     -9.67258463	      8.52890054	      4.45446707	      8.09322041	     -0.66082592	      1.17890758	     -5.40024712
      0.67716667	      0.57385084	      0.61953071	      6.22771365	     -0.68085909	      0.97348655	      0.27527812	     25.39497869	      0.88154251	     -4.15892215	     -6.98626603	      5.44218680	    -16.61773893	     -0.57582073	    -21.04909410	      2.26258938	      1.74490831	    -10.15146055	      8.17866176	      4.63956271	      8.74349178	     -0.51383657	      1.41157439	     -5.37074436
      0.68133333	      0.45278256	      0.45506787	      6.28065087	     -0.67444223	      0.97283909	      0.27549996	     25.45143596	      1.09888504	     -4.00643100	     -7.41124981	      4.94969799	    -17.28429158	     -0.39626265	    -20.96685867	      2.02138284	      1.61724557	    -10.69174973	      7.79994136	      4.76612717	      9.71373175	     -0.26664335	      1.61609854	     -5.35268161
      0.68550000	      0.36382009	      0.29427781	      6.31943446	     -0.66797813	      0.97225566	      0.27567029	     25.52272938	      1.29282913	     -4.04803734	     -7.93438201	      4.41303760	    -17.44702134	     -0.37744634	    -20.94791053	      1.79893483	      1.58077452	    -11.17615088	      7.38120189	      4.74876081	      9.86076506	     -0.06488540	      1.83027492	     -5.31929986
      0.68966667	      0.24761344	      0.10118321	      6.33847589	     -0.66151666	      0.97168982	      0.27597010	     25.56038965	      1.56629452	     -3.78694534	     -8.33772899	      3.88245026	    -18.42829786	     -0.25307702	    -20.82196569	      1.53102896	      1.37307959	    -11.79471312	      6.96149600	      4.92510720	     10.66221333	      0.18338652	      2.06960176	     -5.26321227
      0.69383333	      0.16214473	     -0.07920460	      6.34195994	     -0.65502041	      0.97118702	      0.27621991	     25.61974638	      1.80230911	     -3.74472272	     -8.84252384	      3.26797677	    -18.83571059	      0.46954379	    -20.75360493	      1.29157224	      1.25112965	    -12.34981909	      6.39476199	      4.85870002	     15.56340621	      0.39095637	      2.30515251	     -5.21481401
      0.69800000	      0.02808974	     -0.26783856	      6.34142663	     -0.64852629	      0.97067168	      0.27648966	     25.73408538	      2.04425164	     -3.68103543	     -9.35802063	      2.68475594	    -19.24742864	      0.47306709	    -20.58978392	      1.04709283	      1.11820870	    -12.99609878	      5.89910657	      4.90977496	     15.63020838	      0.66299964	      2.54701618	     -5.12831782
      0.70216667	     -0.06720957	     -0.49019746	      6.30988562	     -0.64199717	      0.97024096	      0.27682489	     25.80528537	      2.34553715	     -3.55186637	     -9.87290351	      2.11692747	    -19.89572547	      0.48176683	    -20.46073185	      0.77074289	      0.95392281	    -13.64261049	      5.34641980	      4.97110722	     15.82982961	      0.88712887	      2.83267641	     -5.03177945
